<?xml version="1.0" encoding="UTF-8"?>
<svg width="16px" height="16px" viewBox="0 0 16 16" version="1.1" xmlns="http://www.w3.org/2000/svg" xmlns:xlink="http://www.w3.org/1999/xlink">
    <!-- Generator: Sketch 50.2 (55047) - http://www.bohemiancoding.com/sketch -->
    <title>icons/set-priority-grey</title>
    <desc>Created with Sketch.</desc>
    <defs></defs>
    <g id="Symbols" stroke="none" stroke-width="1" fill="none" fill-rule="evenodd">
        <g id="icons/set-priority-grey" fill="#9199A3">
            <g id="Group" transform="translate(1.000000, 6.000000)">
                <path d="M4.41602515,0.624037721 L7.4817666,5.2226499 C7.63494283,5.45241425 7.5728559,5.76284892 7.34309155,5.91602515 C7.26095779,5.97078099 7.16445395,6 7.06574145,6 L0.934258546,6 C0.658116171,6 0.434258546,5.77614237 0.434258546,5.5 C0.434258546,5.40128751 0.46347756,5.30478366 0.518233399,5.2226499 L3.58397485,0.624037721 C3.73715108,0.394273376 4.04758575,0.332186442 4.2773501,0.485362672 C4.33227624,0.521980101 4.37940772,0.569111577 4.41602515,0.624037721 Z" id="Rectangle-6"></path>
                <path d="M3,6 L5,6 L5,8 C5,8.55228475 4.55228475,9 4,9 L4,9 C3.44771525,9 3,8.55228475 3,8 L3,6 Z" id="Rectangle"></path>
            </g>
            <g id="Group-2" transform="translate(7.000000, 1.000000)">
                <path d="M4.41602515,3.62403772 L7.4817666,8.2226499 C7.63494283,8.45241425 7.5728559,8.76284892 7.34309155,8.91602515 C7.26095779,8.97078099 7.16445395,9 7.06574145,9 L0.934258546,9 C0.658116171,9 0.434258546,8.77614237 0.434258546,8.5 C0.434258546,8.40128751 0.46347756,8.30478366 0.518233399,8.2226499 L3.58397485,3.62403772 C3.73715108,3.39427338 4.04758575,3.33218644 4.2773501,3.48536267 C4.33227624,3.5219801 4.37940772,3.56911158 4.41602515,3.62403772 Z" id="Rectangle-6" transform="translate(4.000000, 6.000000) scale(1, -1) translate(-4.000000, -6.000000) "></path>
                <path d="M3,0 L5,0 L5,2 C5,2.55228475 4.55228475,3 4,3 L4,3 C3.44771525,3 3,2.55228475 3,2 L3,0 Z" id="Rectangle" transform="translate(4.000000, 1.500000) scale(1, -1) translate(-4.000000, -1.500000) "></path>
            </g>
        </g>
    </g>
</svg>