<?xml version="1.0" encoding="UTF-8"?>
<svg width="16px" height="16px" viewBox="0 0 16 16" version="1.1" xmlns="http://www.w3.org/2000/svg" xmlns:xlink="http://www.w3.org/1999/xlink">
    <!-- Generator: Sketch 49.2 (51160) - http://www.bohemiancoding.com/sketch -->
    <title>Icons/assignee</title>
    <desc>Created with Sketch.</desc>
    <defs></defs>
    <g id="Projects-&amp;-Teams" stroke="none" stroke-width="1" fill="none" fill-rule="evenodd">
        <g id="创建新项目-选择团队&amp;成员" transform="translate(-756.000000, -324.000000)" fill="#1071D3" fill-rule="nonzero">
            <g id="modal" transform="translate(708.000000, 52.000000)">
                <g id="Group-4" transform="translate(24.000000, 256.000000)">
                    <g id="Icons/assignee" transform="translate(24.000000, 16.000000)">
                        <path d="M7,2 C8.1,2 9,2.9 9,4 L9,5 C9,6.1 8.1,7 7,7 C5.9,7 5,6.1 5,5 L5,4 C5,2.9 5.9,2 7,2 Z M7,0 C4.8,0 3,1.8 3,4 L3,5 C3,7.2 4.8,9 7,9 C9.2,9 11,7.2 11,5 L11,4 C11,1.8 9.2,0 7,0 Z" id="Shape"></path>
                        <polygon id="Shape" points="14 10 12 10 12 12 10 12 10 14 12 14 12 16 14 16 14 14 16 14 16 12 14 12"></polygon>
                        <path d="M8,16 L0,16 L0,15 C0,12.2 2.2,10 5,10 L8,10 L8,12 L5,12 C3.7,12 2.6,12.8 2.2,14 L8,14 L8,16 Z" id="Shape"></path>
                    </g>
                </g>
            </g>
        </g>
    </g>
</svg>